# xmcd
#
# Track frame offsets:
#	150
#	9741
#	21626
#	33832
#	44536
#	59166
#	71829
#	82838
#	94112
#	102798
#	112984
#	123646
#
# Disc length: 1789 seconds
#
# Revision: 1
# Processed by: cddbd v1.5.2PL0 Copyright (c) Steve Scherf et al.
# Submitted via: audiograbber 1.83.01
#
DISCID=a306fb0c
DTITLE=Dolly Parton and Porter Wagoner - Just Between You and Me (w. Porter Wagon
DTITLE=er)
DYEAR=1968
DGENRE=Country
TTITLE0=Because One of Us Was Wrong
TTITLE1=The Last Thing On My Mind
TTITLE2=Love is Worth Living
TTITLE3=Just Between You and Me
TTITLE4=Mommie, Ain't That Daddy
TTITLE5=Four O' Thirty Three
TTITLE6=Sorrow's Tearing Down the House (That Happiness Once Built)
TTITLE7=This Time Has Gotta Be Our Last Time
TTITLE8=Before I Met You
TTITLE9=Home Is Where the Hurt Is
TTITLE10=Two Sides to Every Story
TTITLE11=Put It Off Until Tomorrow
EXTD=
EXTT0=
EXTT1=
EXTT2=
EXTT3=
EXTT4=
EXTT5=
EXTT6=
EXTT7=
EXTT8=
EXTT9=
EXTT10=
EXTT11=
PLAYORDER=
